<svg width="1440" height="1024" viewBox="0 0 1440 1024" fill="none" xmlns="http://www.w3.org/2000/svg">
<g clip-path="url(#clip0_127_356)">
<rect width="1440" height="1024" fill="white"/>
<path d="M286.154 901.119C286.154 953.469 238.309 1000 173.973 1000C109.637 1000 61.7919 953.469 61.7919 901.119C61.7919 848.769 109.637 802.238 173.973 802.238C238.309 802.238 286.154 848.769 286.154 901.119Z" stroke="#EC5500" stroke-opacity="0.6" stroke-width="48"/>
<path d="M627.584 887.027C627.584 936.63 577.169 984.217 504.977 984.217C432.785 984.217 382.371 936.63 382.371 887.027C382.371 837.424 432.785 789.837 504.977 789.837C577.169 789.837 627.584 837.424 627.584 887.027Z" stroke="#EC5500" stroke-opacity="0.6" stroke-width="48"/>
<path d="M104.213 674.19C104.213 723.793 53.7983 771.38 -18.3937 771.38C-90.5856 771.38 -141 723.793 -141 674.19C-141 624.587 -90.5856 577 -18.3937 577C53.7983 577 104.213 624.587 104.213 674.19Z" stroke="#EC5500" stroke-opacity="0.6" stroke-width="48"/>
<path d="M1215.31 393.812C1215.31 454.366 1156.51 509.603 1075.76 509.603C995.023 509.603 936.217 454.366 936.217 393.812C936.217 333.257 995.023 278.02 1075.76 278.02C1156.51 278.02 1215.31 333.257 1215.31 393.812Z" stroke="#EC5500" stroke-opacity="0.6" stroke-width="48"/>
<path d="M888 67.1571C888 124.702 842.663 170.314 788 170.314C733.337 170.314 688 124.702 688 67.1571C688 9.61262 733.337 -36 788 -36C842.663 -36 888 9.61262 888 67.1571Z" stroke="#EC5500" stroke-opacity="0.6" stroke-width="48"/>
<path d="M705.774 431.578C705.774 480.243 653.312 528.768 576 528.768C498.688 528.768 446.226 480.243 446.226 431.578C446.226 382.912 498.688 334.388 576 334.388C653.312 334.388 705.774 382.912 705.774 431.578Z" stroke="#EC5500" stroke-opacity="0.6" stroke-width="48"/>
<path d="M963 603.5C963 659.756 916.57 706 858.5 706C800.43 706 754 659.756 754 603.5C754 547.244 800.43 501 858.5 501C916.57 501 963 547.244 963 603.5Z" stroke="#EC5500" stroke-opacity="0.6" stroke-width="48"/>
<path d="M1370 842.5C1370 892.31 1331.48 931 1286 931C1240.52 931 1202 892.31 1202 842.5C1202 792.69 1240.52 754 1286 754C1331.48 754 1370 792.69 1370 842.5Z" stroke="#EC5500" stroke-opacity="0.6" stroke-width="48"/>
<path d="M1067 923C1067 994.48 1020.25 1044 972 1044C923.751 1044 877 994.48 877 923C877 851.52 923.751 802 972 802C1020.25 802 1067 851.52 1067 923Z" stroke="#EC5500" stroke-opacity="0.6" stroke-width="48"/>
<path d="M388 -21C388 50.4798 341.249 100 293 100C244.751 100 198 50.4798 198 -21C198 -92.4798 244.751 -142 293 -142C341.249 -142 388 -92.4798 388 -21Z" stroke="#EC5500" stroke-opacity="0.6" stroke-width="48"/>
<path d="M1416 167.214C1416 221.885 1361.9 272.859 1286.23 272.859C1210.55 272.859 1156.45 221.885 1156.45 167.214C1156.45 112.544 1210.55 61.5691 1286.23 61.5691C1361.9 61.5691 1416 112.544 1416 167.214Z" stroke="#EC5500" stroke-opacity="0.6" stroke-width="48"/>
<path d="M351.312 310.388C351.312 340.852 335.187 370.119 305.791 392.546C276.375 414.989 234.688 429.561 187.656 429.561C140.624 429.561 98.9368 414.989 69.5209 392.546C40.1256 370.119 24 340.852 24 310.388C24 279.923 40.1256 250.657 69.5209 228.23C98.9368 205.787 140.624 191.214 187.656 191.214C234.688 191.214 276.375 205.787 305.791 228.23C335.187 250.657 351.312 279.923 351.312 310.388Z" stroke="#EC5500" stroke-opacity="0.6" stroke-width="48"/>
<rect width="1440" height="1024" fill="white" fill-opacity="0.88"/>
</g>
<defs>
<clipPath id="clip0_127_356">
<rect width="1440" height="1024" fill="white"/>
</clipPath>
</defs>
</svg>
